<svg width="80" height="37" viewBox="0 0 80 37" fill="none" xmlns="http://www.w3.org/2000/svg">
<path d="M2.0117 10.7454C2.15449 10.745 2.29727 10.7445 2.44438 10.744C2.74619 10.7437 3.048 10.7446 3.3498 10.7466C3.81214 10.7492 4.27424 10.7467 4.73657 10.7435C5.02972 10.7439 5.32287 10.7445 5.61602 10.7454C5.7545 10.7444 5.89298 10.7435 6.03565 10.7424C6.99658 10.7539 6.99658 10.7539 7.35294 11.0205C7.71624 11.5076 7.62629 12.105 7.62082 12.6895C7.62143 12.8316 7.62204 12.9736 7.62267 13.12C7.62372 13.4288 7.62367 13.7376 7.62264 14.0464C7.62116 14.5362 7.62282 15.0259 7.62535 15.5157C7.63189 16.9084 7.63208 18.3011 7.63171 19.6938C7.6317 20.5458 7.63484 21.3977 7.63975 22.2496C7.64151 22.7302 7.63954 23.2107 7.6375 23.6913C7.6355 26.0605 7.6355 26.0605 8.67816 28.144C10.0356 29.2462 11.1804 29.5507 12.9367 29.3817C14.0482 29.1628 14.9318 28.7193 15.5987 27.7664C16.1502 26.8404 16.3116 26.1346 16.2945 25.0655C16.2954 24.9185 16.2963 24.7716 16.2973 24.6202C16.2994 24.1394 16.2961 23.6587 16.2928 23.1779C16.2937 22.8419 16.295 22.5059 16.2967 22.1699C16.3005 21.2887 16.2998 20.4076 16.2978 19.5265C16.2948 18.1134 16.2964 16.7004 16.302 15.2874C16.303 14.7942 16.3008 14.3012 16.2984 13.8081C16.2989 13.5065 16.2995 13.205 16.3002 12.9034C16.2987 12.7664 16.2972 12.6294 16.2956 12.4882C16.2993 11.9499 16.3202 11.5365 16.5644 11.0512C16.9058 10.7596 17.0622 10.7287 17.5073 10.7286C17.6394 10.7271 17.7715 10.7256 17.9076 10.724C18.0496 10.7258 18.1917 10.7276 18.338 10.7295C18.4844 10.7293 18.6308 10.7291 18.7817 10.7288C19.0912 10.7291 19.4006 10.731 19.7101 10.7343C20.1842 10.7391 20.6581 10.7377 21.1323 10.7356C21.4328 10.7366 21.7334 10.738 22.034 10.7397C22.176 10.7392 22.3181 10.7388 22.4644 10.7383C22.5965 10.7403 22.7286 10.7424 22.8647 10.7445C22.9808 10.7454 23.0969 10.7463 23.2166 10.7472C23.635 10.8327 23.7566 10.9586 24.0143 11.2991C24.0754 11.7425 24.0754 11.7425 24.0753 12.2895C24.0764 12.4967 24.0776 12.7039 24.0788 12.9173C24.0775 13.1474 24.0763 13.3774 24.075 13.6075C24.0754 13.8494 24.076 14.0913 24.0768 14.3332C24.0783 14.9905 24.0768 15.6478 24.0746 16.3051C24.0728 16.9922 24.0734 17.6794 24.0738 18.3665C24.0739 19.5203 24.0721 20.6741 24.0691 21.8278C24.0656 23.1631 24.0651 24.4983 24.0661 25.8335C24.067 27.1166 24.0661 28.3997 24.0643 29.6827C24.0635 30.2295 24.0634 30.7762 24.0637 31.3229C24.064 31.9662 24.0627 32.6095 24.0601 33.2527C24.0594 33.4893 24.0593 33.7259 24.0597 33.9624C24.0603 34.2844 24.0586 34.6063 24.0568 34.9283C24.0563 35.199 24.0563 35.199 24.0558 35.4751C24.0143 35.898 24.0143 35.898 23.6885 36.2238C23.0238 36.2926 22.3582 36.2844 21.6902 36.2842C21.3598 36.2849 21.0296 36.2908 20.6992 36.297C20.4902 36.2976 20.2811 36.2983 20.0657 36.2989C19.8742 36.3003 19.6826 36.3016 19.4852 36.303C18.8568 36.2075 18.593 36.0206 18.1497 35.5722C17.9276 35.0097 17.9276 35.0097 17.773 34.3911C17.7198 34.1853 17.6667 33.9795 17.612 33.7675C17.5744 33.6104 17.5368 33.4534 17.498 33.2915C17.3905 33.2915 17.283 33.2915 17.1722 33.2915C17.0647 33.4293 16.9572 33.567 16.8464 33.709C15.3597 35.5521 12.9208 36.3901 10.656 36.7126C7.94559 36.9475 5.28332 36.215 3.17241 34.4726C0.97101 32.3488 0.0850161 29.2755 0.0100163 26.2942C-0.00104065 25.4643 -0.00060251 24.6347 0.0020901 23.8047C0.00176025 23.4441 0.00128541 23.0836 0.000673218 22.723C-4.24664e-05 21.9727 0.000985609 21.2224 0.00328327 20.4721C0.00608713 19.5096 0.00444914 18.5472 0.00153733 17.5847C-0.000224744 16.8427 0.000331262 16.1006 0.00159979 15.3585C0.00192588 15.0033 0.00152547 14.6482 0.000387977 14.293C-0.00084886 13.799 0.00103197 13.3052 0.00376054 12.8112C0.00277125 12.6645 0.00178197 12.5177 0.000762706 12.3666C0.00214081 12.2323 0.00351892 12.0981 0.00493879 11.9599C0.00512305 11.8433 0.00530731 11.7268 0.00549715 11.6068C0.209003 10.5885 1.17317 10.7394 2.0117 10.7454Z" fill="white"/>
<path d="M30.2701 3.43008C30.4129 3.43023 30.5558 3.43038 30.703 3.43053C30.8497 3.42983 30.9963 3.42913 31.1474 3.42841C31.4578 3.42748 31.7683 3.4274 32.0787 3.4281C32.5543 3.42862 33.0297 3.4248 33.5052 3.42067C33.8066 3.4203 34.1079 3.42018 34.4092 3.42035C34.5517 3.41885 34.6943 3.41735 34.8412 3.4158C34.9738 3.41682 35.1064 3.41783 35.2431 3.41888C35.3597 3.41877 35.4763 3.41867 35.5964 3.41857C36.0271 3.50323 36.1378 3.60901 36.3952 3.96825C36.4433 4.40141 36.4612 4.79645 36.4573 5.22973C36.4584 5.42442 36.4584 5.42442 36.4596 5.62304C36.4616 6.05941 36.46 6.4957 36.4585 6.93208C36.4591 7.24433 36.46 7.55657 36.4611 7.86882C36.4633 8.71801 36.4624 9.56717 36.4609 10.4164C36.4597 11.3039 36.4608 12.1914 36.4616 13.0789C36.4625 14.5694 36.4613 16.06 36.459 17.5505C36.4563 19.2754 36.4572 21.0001 36.4599 22.7249C36.4621 24.2042 36.4624 25.6834 36.4611 27.1627C36.4603 28.0469 36.4602 28.9311 36.4619 29.8153C36.4633 30.6464 36.4623 31.4776 36.4595 32.3087C36.4588 32.6143 36.459 32.9199 36.4601 33.2255C36.4614 33.6416 36.4597 34.0575 36.4573 34.4736C36.4589 34.6564 36.4589 34.6564 36.4606 34.8429C36.4513 35.6569 36.4513 35.6569 36.1664 36.0545C35.8374 36.2689 35.6346 36.2848 35.2431 36.2845C35.1104 36.2855 34.9778 36.2865 34.8412 36.2876C34.6986 36.2861 34.5561 36.2846 34.4092 36.283C34.189 36.2831 34.189 36.2831 33.9644 36.2833C33.6542 36.2829 33.344 36.2813 33.0339 36.2786C32.558 36.2748 32.0823 36.2753 31.6064 36.2763C31.3052 36.2754 31.0041 36.2743 30.703 36.2728C30.5602 36.273 30.4173 36.2731 30.2701 36.2733C29.265 36.2615 29.265 36.2615 28.9015 35.898C28.8693 35.4739 28.8577 35.067 28.8601 34.6427C28.8596 34.5116 28.8591 34.3805 28.8586 34.2454C28.8573 33.8036 28.8583 33.3619 28.8594 32.9202C28.8589 32.6045 28.8583 32.2888 28.8576 31.9731C28.8561 31.1138 28.8567 30.2545 28.8578 29.3953C28.8586 28.4977 28.8578 27.6001 28.8573 26.7025C28.8567 25.195 28.8575 23.6874 28.859 22.1799C28.8608 20.4348 28.8602 18.6897 28.8585 16.9447C28.857 15.4487 28.8568 13.9527 28.8576 12.4567C28.8581 11.5622 28.8582 10.6678 28.8571 9.77327C28.8562 8.93249 28.8568 8.09172 28.8587 7.25094C28.8591 6.94162 28.859 6.6323 28.8583 6.32298C28.8574 5.9022 28.8585 5.48147 28.8601 5.06069C28.8594 4.93699 28.8587 4.81329 28.8579 4.68585C28.8666 3.53977 29.1569 3.44316 30.2701 3.43008Z" fill="white"/>
<path d="M56.8505 17.8732C58.3987 18.8357 59.2954 20.1661 59.8694 21.888C60.0066 23.4527 60.0598 25.0291 59.3533 26.457C59.1308 26.9793 59.2439 27.3783 59.3807 27.9156C59.4388 28.1836 59.4965 28.4517 59.5537 28.7199C59.6042 28.9406 59.655 29.1613 59.7065 29.3817C59.515 29.3582 59.3234 29.3347 59.1261 29.3105C59.0064 29.2968 58.8867 29.2832 58.7634 29.2691C58.4032 29.2188 58.4032 29.2188 57.8432 29.0763C57.1088 29.0505 56.7659 29.29 56.1505 29.6617C54.8475 30.4304 53.1284 30.3898 51.6935 30.0232C50.0129 29.4366 48.7716 28.2658 47.9314 26.716C47.132 25.0175 47.0183 22.9108 47.6456 21.1339C48.4304 19.3364 49.5603 18.0639 51.3982 17.3266C53.2736 16.6081 55.1288 16.928 56.8505 17.8732Z" fill="white"/>
<path d="M60.3508 12.5088C60.4556 12.5934 60.5604 12.678 60.6684 12.7652C60.7154 12.6168 60.7625 12.4683 60.8109 12.3153C61.3367 10.802 61.3366 10.802 61.9716 10.4845C62.6633 10.4426 63.3556 10.4404 64.0485 10.4364C64.3925 10.4336 64.7363 10.4265 65.0802 10.4193C65.2993 10.4176 65.5185 10.4163 65.7376 10.4152C65.9368 10.4128 66.1361 10.4104 66.3414 10.408C66.9739 10.5016 67.1231 10.6368 67.5105 11.1362C67.592 11.6042 67.592 11.6042 67.5921 12.1575C67.5937 12.3674 67.5953 12.5773 67.597 12.7936C67.5954 13.0258 67.5939 13.2581 67.5922 13.4904C67.5928 13.7353 67.5937 13.9801 67.5949 14.225C67.5971 14.8897 67.5953 15.5544 67.5926 16.2192C67.5904 16.9145 67.5914 17.6098 67.592 18.3051C67.5924 19.4725 67.5902 20.64 67.5865 21.8075C67.5821 23.158 67.5819 24.5084 67.5838 25.859C67.5855 27.1574 67.5845 28.4559 67.5822 29.7544C67.5813 30.3073 67.5813 30.8602 67.5821 31.4132C67.5828 32.064 67.5812 32.7147 67.5777 33.3655C67.5768 33.6046 67.5767 33.8438 67.5775 34.0829C67.5785 34.4087 67.5761 34.7345 67.5736 35.0603C67.573 35.3341 67.573 35.3341 67.5724 35.6134C67.5105 36.0609 67.5105 36.0609 67.2974 36.3632C66.8319 36.6781 66.3049 36.6326 65.7611 36.6375C65.6376 36.6395 65.514 36.6415 65.3867 36.6436C65.1253 36.6467 64.8639 36.6486 64.6025 36.6492C64.2043 36.6514 63.8069 36.6624 63.4088 36.6737C61.5725 36.7 61.5725 36.7 60.9392 36.3229C60.6774 36.0293 60.5101 35.7642 60.3426 35.4093C60.2418 35.2245 60.141 35.0397 60.0371 34.8493C59.9766 34.7115 59.9162 34.5738 59.8538 34.4319C59.7453 34.5165 59.6367 34.6011 59.5248 34.6883C56.7601 36.7802 54.0832 37.2237 50.6712 36.8311C48.4807 36.4614 46.1768 35.275 44.5406 33.7802C44.4053 33.658 44.2701 33.5358 44.1308 33.4099C43.1586 32.4872 42.4281 31.5248 41.7712 30.3592C41.6584 30.1664 41.6584 30.1664 41.5433 29.9697C39.9763 27.1016 39.6537 23.2912 40.4622 20.1438C41.5802 16.5871 43.6346 13.5215 47.0046 11.7496C51.2155 9.63773 56.5001 9.53698 60.3508 12.5088ZM45.0293 13.9056C44.8293 14.0832 44.8293 14.0832 44.6252 14.2645C42.2936 16.4515 40.8705 19.5268 40.753 22.7248C40.677 26.6327 41.6334 29.8625 44.3358 32.7683C46.5077 35.0136 49.7085 36.3739 52.8285 36.4376C55.4218 36.4434 57.6911 35.5135 59.5484 33.721C59.8538 33.4544 59.8538 33.4544 60.3426 33.2915C60.356 33.4259 60.3694 33.5603 60.3833 33.6988C60.5605 34.5259 60.8793 35.2944 61.4829 35.898C61.8917 35.9265 62.2822 35.9358 62.6907 35.9298C62.869 35.9291 62.869 35.9291 63.0509 35.9284C63.431 35.9266 63.8111 35.9225 64.1912 35.9184C64.4487 35.9167 64.7063 35.9153 64.9638 35.9139C65.5955 35.9103 66.2272 35.9047 66.8588 35.898C67.0793 35.4572 67.0428 35.1137 67.0435 34.6199C67.0442 34.4171 67.0449 34.2142 67.0456 34.0052C67.0456 33.7792 67.0455 33.5532 67.0454 33.3271C67.0459 33.0901 67.0465 32.853 67.0471 32.616C67.0485 31.9711 67.0489 31.3262 67.049 30.6813C67.0492 30.1437 67.0497 29.606 67.0503 29.0684C67.0517 27.8004 67.052 26.5325 67.0519 25.2645C67.0518 23.9547 67.0536 22.645 67.0561 21.3352C67.0583 20.2121 67.0591 19.089 67.059 17.9658C67.059 17.2944 67.0595 16.623 67.0612 15.9516C67.0627 15.3205 67.0628 14.6893 67.0616 14.0582C67.0614 13.8261 67.0618 13.594 67.0628 13.362C67.064 13.0461 67.0631 12.7302 67.062 12.4143C67.0621 12.2372 67.0622 12.0601 67.0623 11.8777C67.0635 11.4348 67.0635 11.4348 66.6959 11.1362C66.2052 11.0907 66.2052 11.0907 65.6307 11.1043C65.4186 11.1054 65.2065 11.1064 64.988 11.1075C64.7631 11.1102 64.5383 11.113 64.3134 11.1158C64.0873 11.1174 63.8612 11.1189 63.6351 11.1202C63.0806 11.1241 62.5261 11.1299 61.9716 11.1362C61.4072 12.4264 61.4072 12.4264 60.8313 13.7427C60.3504 13.7427 60.2137 13.4842 59.8742 13.1521C57.7927 11.2675 54.9614 10.652 52.2152 10.7826C49.583 10.9951 46.9793 12.1282 45.0293 13.9056Z" fill="white"/>
<path d="M73.9892 10.8211C74.1315 10.8198 74.2737 10.8185 74.4203 10.8172C74.7217 10.8149 75.0231 10.8132 75.3245 10.8119C75.7847 10.8091 76.2447 10.8019 76.7049 10.7947C76.9977 10.7931 77.2905 10.7917 77.5834 10.7906C77.7207 10.7877 77.858 10.7849 77.9995 10.782C78.1288 10.7824 78.2582 10.7829 78.3914 10.7834C78.5609 10.782 78.5609 10.782 78.7338 10.7805C79.2506 10.9002 79.5148 11.1426 79.8914 11.5116C79.9935 11.9767 79.9935 11.9767 79.9938 12.5256C79.9958 12.7339 79.9979 12.9422 80 13.1568C79.9982 13.3873 79.9963 13.6178 79.9942 13.8483C79.9951 14.0913 79.9963 14.3343 79.9978 14.5773C80.0008 15.237 79.9987 15.8966 79.9955 16.5563C79.9928 17.2466 79.9943 17.9368 79.9951 18.627C79.9958 19.7861 79.9932 20.9452 79.9887 22.1044C79.9835 23.4447 79.9835 24.785 79.9863 26.1253C79.9889 27.4144 79.9878 28.7034 79.985 29.9925C79.9839 30.5412 79.984 31.0899 79.9852 31.6387C79.9865 32.2848 79.9845 32.9309 79.98 33.577C79.9789 33.8142 79.9789 34.0514 79.9801 34.2886C79.9815 34.6122 79.9785 34.9358 79.9753 35.2594C79.9748 35.4406 79.9744 35.6217 79.9739 35.8084C79.8726 36.3797 79.6911 36.572 79.2398 36.9251C78.8988 37.0056 78.8988 37.0056 78.5306 37.0042C78.3226 37.0057 78.3226 37.0057 78.1105 37.0073C77.9622 37.0049 77.8138 37.0026 77.661 37.0002C77.4309 36.9999 77.4309 36.9999 77.1962 36.9997C76.8723 36.9987 76.5485 36.9962 76.2246 36.9921C75.7284 36.9862 75.2323 36.9855 74.736 36.9855C74.4213 36.9839 74.1066 36.982 73.792 36.9798C73.6433 36.9794 73.4947 36.9791 73.3415 36.9787C73.2034 36.9766 73.0653 36.9745 72.923 36.9724C72.8016 36.9712 72.6802 36.9699 72.5551 36.9686C72.2348 36.9251 72.2348 36.9251 71.7461 36.5993C71.5699 36.0706 71.5614 35.6848 71.5592 35.1285C71.558 34.9231 71.5569 34.7178 71.5557 34.5062C71.5552 34.2782 71.5548 34.0502 71.5543 33.8222C71.5533 33.5825 71.5522 33.3427 71.5511 33.103C71.5477 32.3154 71.546 31.5279 71.5444 30.7403C71.5437 30.4693 71.543 30.1983 71.5424 29.9272C71.5392 28.6543 71.5369 27.3814 71.5356 26.1085C71.534 24.6384 71.5297 23.1682 71.5231 21.698C71.5182 20.562 71.5158 19.426 71.5152 18.29C71.5149 17.6113 71.5134 16.9326 71.5093 16.2539C71.5055 15.6157 71.5048 14.9775 71.5065 14.3393C71.5066 14.105 71.5055 13.8707 71.5033 13.6363C71.5004 13.3167 71.502 12.9969 71.5037 12.6773C71.5033 12.4983 71.5029 12.3193 71.5025 12.1349C71.6022 11.5657 71.79 11.3792 72.2348 11.0229C72.7789 10.7508 73.3906 10.8264 73.9892 10.8211ZM72.2348 11.8374C72.1855 12.2757 72.1855 12.2757 72.1945 12.797C72.1938 13.0014 72.1932 13.2059 72.1925 13.4165C72.1934 13.6444 72.1943 13.8722 72.1952 14.1C72.1951 14.3389 72.1947 14.5779 72.1943 14.8168C72.1935 15.4667 72.1948 16.1166 72.1964 16.7665C72.1978 17.4455 72.1976 18.1244 72.1975 18.8033C72.1976 19.9434 72.1991 21.0835 72.2013 22.2236C72.2038 23.5436 72.2047 24.8635 72.2046 26.1835C72.2045 27.4512 72.2053 28.7188 72.2067 29.9865C72.2072 30.527 72.2075 31.0675 72.2076 31.608C72.2078 32.2438 72.2088 32.8796 72.2104 33.5154C72.2109 33.7494 72.2111 33.9834 72.211 34.2174C72.2109 34.5355 72.2119 34.8536 72.213 35.1716C72.2133 35.3501 72.2136 35.5285 72.2139 35.7123C72.1898 36.1019 72.1898 36.1019 72.3977 36.2735C72.8894 36.2899 73.3772 36.2962 73.869 36.2951C74.0904 36.2953 74.0904 36.2953 74.3163 36.2956C74.6291 36.2957 74.9419 36.2954 75.2547 36.2947C75.7352 36.2938 76.2158 36.2947 76.6963 36.2957C76.9994 36.2956 77.3025 36.2954 77.6056 36.2951C77.8228 36.2956 77.8228 36.2956 78.0443 36.2961C78.6938 36.3591 78.6938 36.3591 79.2398 36.1105C79.2559 35.7955 79.2604 35.4798 79.2605 35.1644C79.261 34.9588 79.2614 34.7532 79.2619 34.5413C79.2616 34.3114 79.2612 34.0814 79.2609 33.8515C79.2611 33.611 79.2614 33.3705 79.2618 33.13C79.2625 32.475 79.2622 31.82 79.2617 31.165C79.2613 30.4811 79.2617 29.7972 79.2619 29.1133C79.2622 27.9645 79.2618 26.8158 79.261 25.667C79.2602 24.337 79.2604 23.0069 79.2613 21.6769C79.2621 20.537 79.2622 19.3972 79.2618 18.2573C79.2615 17.5756 79.2615 16.8939 79.262 16.2122C79.2625 15.5715 79.2622 14.9307 79.2612 14.29C79.261 14.0541 79.2611 13.8183 79.2614 13.5825C79.2619 13.2619 79.2612 12.9413 79.2605 12.6207C79.2604 12.4408 79.2604 12.261 79.2603 12.0757C79.2852 11.6835 79.2852 11.6835 79.0769 11.5116C78.599 11.4931 78.1251 11.4848 77.647 11.4842C77.5034 11.4837 77.3597 11.4831 77.2118 11.4826C76.9073 11.4818 76.6029 11.4814 76.2985 11.4814C75.8315 11.481 75.3646 11.4781 74.8976 11.475C74.6025 11.4745 74.3073 11.4742 74.0122 11.474C73.8718 11.4729 73.7315 11.4717 73.5869 11.4705C72.8327 11.4377 72.8327 11.4377 72.2348 11.8374Z" fill="white"/>
<path d="M74.2043 0.498188C74.3316 0.49749 74.4589 0.496791 74.5901 0.496072C74.8589 0.495138 75.1277 0.495054 75.3965 0.495762C75.8066 0.496276 76.2165 0.492453 76.6266 0.488324C76.8882 0.487954 77.1499 0.487839 77.4115 0.488006C77.5336 0.486506 77.6556 0.485005 77.7813 0.483459C78.5124 0.489896 78.9941 0.568273 79.5656 1.03591C79.9956 1.60326 79.9413 2.25647 79.9404 2.93988C79.9411 3.06036 79.9418 3.18083 79.9425 3.30495C79.9435 3.55908 79.9435 3.81322 79.9428 4.06735C79.9423 4.45565 79.9461 4.84376 79.9503 5.23204C79.9506 5.47937 79.9508 5.7267 79.9506 5.97403C79.9521 6.08977 79.9536 6.20552 79.9551 6.32478C79.9504 6.82703 79.9187 7.17687 79.6739 7.62028C79.0739 8.19046 78.2812 8.07275 77.5051 8.07973C77.3667 8.08104 77.2283 8.08236 77.0857 8.08371C76.7929 8.08596 76.5002 8.08771 76.2074 8.08899C75.7604 8.0918 75.3137 8.09895 74.8667 8.10613C74.5821 8.10778 74.2974 8.10917 74.0128 8.11027C73.8129 8.11455 73.8129 8.11455 73.609 8.11891C72.9555 8.11643 72.6382 8.09018 72.0727 7.73112C71.3265 6.95028 71.5405 5.88477 71.5351 4.86534C71.5323 4.50129 71.5251 4.13749 71.5179 3.77351C71.5163 3.5406 71.5149 3.3077 71.5138 3.07479C71.5102 2.75798 71.5102 2.75798 71.5066 2.43478C71.609 1.65292 71.8922 1.13936 72.519 0.652066C73.0767 0.492883 73.6291 0.49749 74.2043 0.498188ZM72.4826 1.45773C72.1452 1.99238 72.153 2.3715 72.154 3.00161C72.1537 3.11162 72.1535 3.22163 72.1532 3.33498C72.1535 3.56679 72.1554 3.79861 72.1588 4.0304C72.1635 4.38515 72.1621 4.7395 72.16 5.09426C72.161 5.31985 72.1624 5.54544 72.1641 5.77103C72.1657 5.97589 72.1673 6.18076 72.169 6.39183C72.2413 6.9506 72.2935 7.05571 72.7235 7.38928C73.1989 7.43589 73.6388 7.45387 74.1139 7.44846C74.2499 7.44854 74.3858 7.44862 74.5259 7.44871C74.813 7.44833 75.1002 7.44674 75.3873 7.44405C75.8278 7.4402 76.2682 7.4407 76.7087 7.44178C76.9875 7.44087 77.2663 7.43971 77.5452 7.43828C77.7435 7.4385 77.7435 7.4385 77.9458 7.43873C78.6695 7.45878 78.6695 7.45878 79.2398 7.06347C79.2743 6.66045 79.2893 6.27612 79.2888 5.87285C79.2898 5.69629 79.2898 5.69629 79.2909 5.51617C79.2918 5.26708 79.2919 5.01798 79.2912 4.76889C79.2907 4.3877 79.2945 4.00672 79.2986 3.62556C79.299 3.38364 79.2991 3.14171 79.299 2.89979C79.3005 2.78575 79.302 2.6717 79.3035 2.55419C79.2993 2.11474 79.2803 1.76446 79.0735 1.37182C78.5545 1.09332 78.0181 1.12596 77.4434 1.12818C77.3154 1.12733 77.1875 1.12647 77.0557 1.12559C76.7852 1.12455 76.5148 1.12476 76.2443 1.12615C75.8309 1.12754 75.4179 1.12285 75.0045 1.11768C74.7416 1.11742 74.4787 1.11751 74.2158 1.118C74.0924 1.11617 73.969 1.11434 73.8419 1.11245C73.2985 1.11962 72.944 1.16186 72.4826 1.45773Z" fill="white"/>
<circle cx="50.1754" cy="23.6163" r="0.814535" fill="black"/>
<circle cx="53.5964" cy="23.6163" r="0.814535" fill="black"/>
<circle cx="57.0175" cy="23.6163" r="0.814535" fill="black"/>
</svg>
